<svg width="121" height="28" viewBox="0 0 121 28" fill="none" xmlns="http://www.w3.org/2000/svg">
<path d="M115.469 23.1538C114.42 23.1538 113.505 22.9441 112.722 22.5248C111.94 22.1055 111.332 21.5255 110.898 20.7848C110.479 20.0301 110.269 19.1426 110.269 18.1223C110.269 17.0881 110.479 16.2006 110.898 15.4599C111.332 14.7052 111.94 14.1252 112.722 13.7199C113.505 13.3006 114.427 13.0909 115.489 13.0909C116.552 13.0909 117.453 13.2866 118.194 13.6779C118.949 14.0553 119.522 14.6143 119.913 15.3551C120.304 16.0818 120.5 16.9623 120.5 17.9966C120.5 18.1223 120.493 18.2551 120.479 18.3949C120.479 18.5346 120.472 18.6465 120.458 18.7303H111.821V17.0532H118.089L117.355 18.0175C117.411 17.9337 117.46 17.8219 117.502 17.6821C117.558 17.5284 117.586 17.4026 117.586 17.3047C117.586 16.8296 117.495 16.4242 117.313 16.0888C117.146 15.7534 116.901 15.4878 116.58 15.2922C116.258 15.0965 115.881 14.9987 115.448 14.9987C114.916 14.9987 114.469 15.1175 114.106 15.3551C113.756 15.5787 113.484 15.9211 113.288 16.3823C113.107 16.8296 113.009 17.3886 112.995 18.0595C112.995 18.7024 113.086 19.2474 113.267 19.6947C113.463 20.1419 113.749 20.4843 114.127 20.7219C114.504 20.9595 114.958 21.0783 115.489 21.0783C116.09 21.0783 116.601 20.9665 117.02 20.7429C117.453 20.5053 117.81 20.1559 118.089 19.6947L120.458 20.4284C119.955 21.3369 119.284 22.0217 118.445 22.4829C117.621 22.9301 116.629 23.1538 115.469 23.1538Z" fill="#414141"/>
<path d="M101.04 18.1223C101.04 18.6814 101.166 19.1706 101.417 19.5898C101.669 20.0091 102.004 20.3376 102.423 20.5752C102.857 20.8128 103.332 20.9316 103.849 20.9316C104.268 20.9316 104.674 20.8687 105.065 20.7429C105.456 20.6031 105.806 20.4214 106.113 20.1978C106.435 19.9602 106.679 19.6877 106.847 19.3802V22.1684C106.511 22.4759 106.071 22.7205 105.526 22.9022C104.995 23.0699 104.373 23.1538 103.66 23.1538C102.64 23.1538 101.718 22.9441 100.893 22.5248C100.082 22.1055 99.4395 21.5185 98.9643 20.7638C98.5031 19.9951 98.2725 19.1147 98.2725 18.1223C98.2725 17.1161 98.5031 16.2356 98.9643 15.4809C99.4395 14.7262 100.082 14.1392 100.893 13.7199C101.718 13.3006 102.64 13.0909 103.66 13.0909C104.373 13.0909 104.995 13.1818 105.526 13.3635C106.071 13.5312 106.511 13.7618 106.847 14.0553V16.8435C106.679 16.5361 106.428 16.2705 106.092 16.0469C105.771 15.8093 105.414 15.6276 105.023 15.5018C104.632 15.376 104.24 15.3131 103.849 15.3131C103.332 15.3131 102.857 15.4389 102.423 15.6905C102.004 15.9281 101.669 16.2565 101.417 16.6758C101.166 17.0951 101.04 17.5773 101.04 18.1223Z" fill="#414141"/>
<path d="M85.7496 13.3007H88.6637L91.0326 19.1077L93.4016 13.3007H96.3156L91.0326 23.9505L85.7496 13.3007Z" fill="#414141"/>
<path d="M73.0343 18.1223C73.0343 17.1161 73.2649 16.2356 73.7261 15.4809C74.2013 14.7262 74.8372 14.1392 75.6339 13.7199C76.4445 13.3006 77.3599 13.0909 78.3802 13.0909C79.4004 13.0909 80.3089 13.3006 81.1055 13.7199C81.9161 14.1392 82.552 14.7262 83.0133 15.4809C83.4884 16.2356 83.726 17.1161 83.726 18.1223C83.726 19.1147 83.4884 19.9951 83.0133 20.7638C82.552 21.5185 81.9161 22.1055 81.1055 22.5248C80.3089 22.9441 79.4004 23.1538 78.3802 23.1538C77.3599 23.1538 76.4445 22.9441 75.6339 22.5248C74.8372 22.1055 74.2013 21.5185 73.7261 20.7638C73.2649 19.9951 73.0343 19.1147 73.0343 18.1223ZM75.8016 18.1223C75.8016 18.6674 75.9134 19.1496 76.137 19.5689C76.3746 19.9742 76.6891 20.2956 77.0804 20.5332C77.4717 20.7568 77.905 20.8687 78.3802 20.8687C78.8554 20.8687 79.2886 20.7568 79.6799 20.5332C80.0713 20.2956 80.3788 19.9742 80.6024 19.5689C80.84 19.1496 80.9588 18.6674 80.9588 18.1223C80.9588 17.5773 80.84 17.0951 80.6024 16.6758C80.3788 16.2565 80.0713 15.9351 79.6799 15.7115C79.2886 15.4878 78.8554 15.376 78.3802 15.376C77.905 15.376 77.4717 15.4878 77.0804 15.7115C76.6891 15.9351 76.3746 16.2565 76.137 16.6758C75.9134 17.0951 75.8016 17.5773 75.8016 18.1223Z" fill="#414141"/>
<path d="M66.808 13.3006V22.9441H64.1455V13.3006H66.808ZM69.6381 16.1307C69.4564 15.963 69.2678 15.8372 69.0721 15.7534C68.8904 15.6555 68.6598 15.6066 68.3803 15.6066C68.0448 15.6066 67.7583 15.6975 67.5207 15.8791C67.2831 16.0608 67.1015 16.3194 66.9757 16.6548C66.8639 16.9763 66.808 17.3676 66.808 17.8288L66.0533 17.0741C66.0533 16.3054 66.2 15.6276 66.4935 15.0406C66.787 14.4396 67.1713 13.9644 67.6465 13.615C68.1217 13.2516 68.6109 13.0699 69.114 13.0699C69.4634 13.0699 69.7919 13.1328 70.0993 13.2586C70.4208 13.3844 70.6793 13.5731 70.875 13.8247L69.6381 16.1307Z" fill="#414141"/>
<path d="M51.2068 6.59204H53.8273V22.9441H51.2068V6.59204ZM57.3703 13.3006H60.6197L56.4688 17.2838L61.039 22.9441H57.8105L53.2193 17.2838L57.3703 13.3006Z" fill="#414141"/>
<path d="M36.8636 18.1223C36.8636 17.1161 37.0943 16.2356 37.5555 15.4809C38.0307 14.7262 38.6666 14.1392 39.4632 13.7199C40.2738 13.3006 41.1893 13.0909 42.2095 13.0909C43.2298 13.0909 44.1382 13.3006 44.9349 13.7199C45.7455 14.1392 46.3814 14.7262 46.8426 15.4809C47.3178 16.2356 47.5554 17.1161 47.5554 18.1223C47.5554 19.1147 47.3178 19.9951 46.8426 20.7638C46.3814 21.5185 45.7455 22.1055 44.9349 22.5248C44.1382 22.9441 43.2298 23.1538 42.2095 23.1538C41.1893 23.1538 40.2738 22.9441 39.4632 22.5248C38.6666 22.1055 38.0307 21.5185 37.5555 20.7638C37.0943 19.9951 36.8636 19.1147 36.8636 18.1223ZM39.6309 18.1223C39.6309 18.6674 39.7427 19.1496 39.9663 19.5689C40.2039 19.9742 40.5184 20.2956 40.9097 20.5332C41.3011 20.7568 41.7343 20.8687 42.2095 20.8687C42.6847 20.8687 43.118 20.7568 43.5093 20.5332C43.9006 20.2956 44.2081 19.9742 44.4317 19.5689C44.6693 19.1496 44.7881 18.6674 44.7881 18.1223C44.7881 17.5773 44.6693 17.0951 44.4317 16.6758C44.2081 16.2565 43.9006 15.9351 43.5093 15.7115C43.118 15.4878 42.6847 15.376 42.2095 15.376C41.7343 15.376 41.3011 15.4878 40.9097 15.7115C40.5184 15.9351 40.2039 16.2565 39.9663 16.6758C39.7427 17.0951 39.6309 17.5773 39.6309 18.1223Z" fill="#414141"/>
<path d="M25.8877 27.5562H23.1624V13.3006H25.8877V27.5562ZM33.8122 18.1223C33.8122 19.2125 33.5955 20.1419 33.1623 20.9106C32.729 21.6793 32.156 22.2593 31.4432 22.6506C30.7444 23.0419 29.9897 23.2376 29.1791 23.2376C28.3545 23.2376 27.6347 23.028 27.0198 22.6087C26.4188 22.1894 25.9506 21.5954 25.6152 20.8267C25.2937 20.058 25.133 19.1566 25.133 18.1223C25.133 17.0741 25.2937 16.1727 25.6152 15.418C25.9506 14.6493 26.4188 14.0553 27.0198 13.636C27.6347 13.2167 28.3545 13.0071 29.1791 13.0071C29.9897 13.0071 30.7444 13.2027 31.4432 13.5941C32.156 13.9854 32.729 14.5654 33.1623 15.3341C33.5955 16.0888 33.8122 17.0182 33.8122 18.1223ZM31.003 18.1223C31.003 17.5493 30.8842 17.0602 30.6466 16.6549C30.409 16.2495 30.0875 15.9421 29.6822 15.7324C29.2909 15.5228 28.8576 15.418 28.3824 15.418C27.9771 15.418 27.5788 15.5228 27.1875 15.7324C26.8101 15.9281 26.4957 16.2286 26.2441 16.6339C26.0065 17.0392 25.8877 17.5353 25.8877 18.1223C25.8877 18.7093 26.0065 19.2055 26.2441 19.6108C26.4957 20.0161 26.8101 20.3236 27.1875 20.5332C27.5788 20.7289 27.9771 20.8267 28.3824 20.8267C28.8576 20.8267 29.2909 20.7219 29.6822 20.5123C30.0875 20.3026 30.409 19.9951 30.6466 19.5898C30.8842 19.1845 31.003 18.6954 31.003 18.1223Z" fill="#414141"/>
<path d="M6.57959 21.8959V18.4368H7.94226L7.41816 21.8959H6.57959Z" fill="#E67E22" stroke="#E67E22"/>
<path d="M1.86267 24.8309C2.80606 9.84152 0.5 1.7703 0.5 1.14138L6.9989 0.512451C7.38324 0.722093 8.21482 2.81851 8.46639 9.52705C19.3678 7.43063 19.1581 17.738 17.6906 23.1538H16.4328V16.1308L13.1833 18.1224V26.8225H11.8207L11.5062 18.1224C9.20014 17.8079 4.39934 17.179 3.64463 17.179C3.64463 18.1014 3.22534 22.6646 3.0157 24.8309H1.86267Z" fill="#E67E22" stroke="#E67E22"/>
<path d="M4.79761 15.1874C6.83413 13.2805 11.8236 10.5028 15.4893 14.6477C15.2857 12.4889 9.68526 7.84739 4.79761 15.1874Z" fill="white" stroke="white"/>
</svg>
